{
    "asset" : {
        "generator" : "Khronos glTF Blender I/O v0.9.36",
        "version" : "2.0"
    },
    "extensionsUsed" : [
        "KHR_materials_unlit"
    ],
    "extensionsRequired" : [
        "KHR_materials_unlit"
    ],
    "scene" : 0,
    "scenes" : [
        {
            "name" : "Scene",
            "nodes" : [
                0,
                1
            ]
        }
    ],
    "nodes" : [
        {
            "mesh" : 0,
            "name" : "kitchen",
            "scale" : [
                0.0010000000474974513,
                0.0010000000474974513,
                0.0010000000474974513
            ],
            "translation" : [
                -0.37232059240341187,
                0.10000000149011612,
                -0.9141921997070312
            ]
        },
        {
            "mesh" : 1,
            "name" : "walls",
            "scale" : [
                0.0010000000474974513,
                0.0010000000474974513,
                0.0010000000474974513
            ],
            "translation" : [
                0.103823721408844,
                0.001875000074505806,
                0.698486328125
            ]
        }
    ],
    "materials" : [
        {
            "extensions" : {
                "KHR_materials_unlit" : {}
            },
            "name" : "kitchen",
            "pbrMetallicRoughness" : {
                "baseColorTexture" : {
                    "index" : 0,
                    "texCoord" : 0
                }
            }
        },
        {
            "extensions" : {
                "KHR_materials_unlit" : {}
            },
            "name" : "walls",
            "pbrMetallicRoughness" : {
                "baseColorTexture" : {
                    "index" : 1,
                    "texCoord" : 0
                }
            }
        }
    ],
    "meshes" : [
        {
            "name" : "Mesh",
            "primitives" : [
                {
                    "attributes" : {
                        "POSITION" : 0,
                        "NORMAL" : 1,
                        "TEXCOORD_0" : 2,
                        "TEXCOORD_1" : 3,
                        "TEXCOORD_2" : 4,
                        "TEXCOORD_3" : 5,
                        "TEXCOORD_4" : 6,
                        "COLOR_0" : 7
                    },
                    "indices" : 8,
                    "material" : 0
                }
            ]
        },
        {
            "name" : "Mesh.001",
            "primitives" : [
                {
                    "attributes" : {
                        "POSITION" : 9,
                        "NORMAL" : 10,
                        "TEXCOORD_0" : 11,
                        "TEXCOORD_1" : 12
                    },
                    "indices" : 13,
                    "material" : 1
                }
            ]
        }
    ],
    "textures" : [
        {
            "source" : 0
        },
        {
            "source" : 1
        }
    ],
    "images" : [
        {
            "mimeType" : "image/jpeg",
            "name" : "kitchenCorona_Beauty",
            "uri" : "kitchenCorona_Beauty.jpg"
        },
        {
            "mimeType" : "image/jpeg",
            "name" : "wallsCorona_Beauty",
            "uri" : "wallsCorona_Beauty.jpg"
        }
    ],
    "accessors" : [
        {
            "bufferView" : 0,
            "componentType" : 5126,
            "count" : 32686,
            "max" : [
                2467.499755859375,
                2642.616943359375,
                2081.24951171875
            ],
            "min" : [
                -602.5,
                -100,
                -325
            ],
            "type" : "VEC3"
        },
        {
            "bufferView" : 1,
            "componentType" : 5126,
            "count" : 32686,
            "type" : "VEC3"
        },
        {
            "bufferView" : 2,
            "componentType" : 5126,
            "count" : 32686,
            "type" : "VEC2"
        },
        {
            "bufferView" : 3,
            "componentType" : 5126,
            "count" : 32686,
            "type" : "VEC2"
        },
        {
            "bufferView" : 4,
            "componentType" : 5126,
            "count" : 32686,
            "type" : "VEC2"
        },
        {
            "bufferView" : 5,
            "componentType" : 5126,
            "count" : 32686,
            "type" : "VEC2"
        },
        {
            "bufferView" : 6,
            "componentType" : 5126,
            "count" : 32686,
            "type" : "VEC2"
        },
        {
            "bufferView" : 7,
            "componentType" : 5126,
            "count" : 32686,
            "type" : "VEC4"
        },
        {
            "bufferView" : 8,
            "componentType" : 5123,
            "count" : 59586,
            "type" : "SCALAR"
        },
        {
            "bufferView" : 9,
            "componentType" : 5126,
            "count" : 8250,
            "max" : [
                2008.645263671875,
                2740.741943359375,
                1949.37060546875
            ],
            "min" : [
                -2008.6455078125,
                0,
                -1949.371337890625
            ],
            "type" : "VEC3"
        },
        {
            "bufferView" : 10,
            "componentType" : 5126,
            "count" : 8250,
            "type" : "VEC3"
        },
        {
            "bufferView" : 11,
            "componentType" : 5126,
            "count" : 8250,
            "type" : "VEC2"
        },
        {
            "bufferView" : 12,
            "componentType" : 5126,
            "count" : 8250,
            "type" : "VEC2"
        },
        {
            "bufferView" : 13,
            "componentType" : 5123,
            "count" : 16236,
            "type" : "SCALAR"
        }
    ],
    "bufferViews" : [
        {
            "buffer" : 0,
            "byteLength" : 392232,
            "byteOffset" : 0
        },
        {
            "buffer" : 0,
            "byteLength" : 392232,
            "byteOffset" : 392232
        },
        {
            "buffer" : 0,
            "byteLength" : 261488,
            "byteOffset" : 784464
        },
        {
            "buffer" : 0,
            "byteLength" : 261488,
            "byteOffset" : 1045952
        },
        {
            "buffer" : 0,
            "byteLength" : 261488,
            "byteOffset" : 1307440
        },
        {
            "buffer" : 0,
            "byteLength" : 261488,
            "byteOffset" : 1568928
        },
        {
            "buffer" : 0,
            "byteLength" : 261488,
            "byteOffset" : 1830416
        },
        {
            "buffer" : 0,
            "byteLength" : 522976,
            "byteOffset" : 2091904
        },
        {
            "buffer" : 0,
            "byteLength" : 119172,
            "byteOffset" : 2614880
        },
        {
            "buffer" : 0,
            "byteLength" : 99000,
            "byteOffset" : 2734052
        },
        {
            "buffer" : 0,
            "byteLength" : 99000,
            "byteOffset" : 2833052
        },
        {
            "buffer" : 0,
            "byteLength" : 66000,
            "byteOffset" : 2932052
        },
        {
            "buffer" : 0,
            "byteLength" : 66000,
            "byteOffset" : 2998052
        },
        {
            "buffer" : 0,
            "byteLength" : 32472,
            "byteOffset" : 3064052
        }
    ],
    "buffers" : [
        {
            "byteLength" : 3096524,
            "uri" : "kitchen_vr_blend.bin"
        }
    ]
}
